<svg width="14.837952" height="14.726250" viewBox="0 0 14.838 14.7262" fill="none" xmlns="http://www.w3.org/2000/svg" xmlns:xlink="http://www.w3.org/1999/xlink">
	<defs/>
	<path id="Vector" d="M9.74 4.05C9.9 4.37 10.33 4.69 10.69 4.75L12.81 5.1C14.17 5.33 14.49 6.31 13.51 7.29L11.86 8.94C11.58 9.22 11.43 9.76 11.51 10.15L11.99 12.19C12.36 13.81 11.5 14.44 10.07 13.59L8.07 12.41C7.71 12.2 7.12 12.2 6.75 12.41L4.76 13.59C3.33 14.44 2.47 13.81 2.84 12.19L3.31 10.15C3.4 9.76 3.25 9.22 2.97 8.94L1.31 7.29C0.34 6.31 0.65 5.33 2.01 5.1L4.14 4.75C4.49 4.69 4.92 4.37 5.08 4.05L6.25 1.7C6.89 0.43 7.93 0.43 8.57 1.7L9.74 4.05Z" stroke="#FFBD6D" stroke-opacity="1.000000" stroke-width="1.500000" stroke-linejoin="round"/>
</svg>
